<svg width="12" height="7" viewBox="0 0 12 7" fill="none" xmlns="http://www.w3.org/2000/svg">
<rect width="12" height="7" fill="#E5E5E5"/>
<g clip-path="url(#clip0_0:1)">
<rect width="1280" height="2103" transform="translate(-1135 -1502)" fill="#F2F2F2"/>
<g filter="url(#filter0_d_0:1)">
<rect x="-1095" y="-1502" width="1200" height="2103" fill="white"/>
</g>
<rect x="-126" y="-20" width="158" height="46" rx="3" stroke="#E6E6E6" stroke-width="2"/>
<g opacity="0.3" clip-path="url(#clip1_0:1)">
<path d="M6.6 6.7001L11.7 1.4001C12 1.1001 12 0.500098 11.7 0.200098C11.4 -0.0999023 10.8 -0.0999023 10.5 0.200098L6 4.9001L1.5 0.200098C1.2 -0.0999023 0.6 -0.0999023 0.3 0.200098C0.1 0.300098 0 0.600098 0 0.800098C0 1.0001 0.1 1.2001 0.3 1.4001L5.4 6.7001C5.7 7.1001 6.3 7.1001 6.6 6.7001Z" fill="black"/>
</g>
</g>
<defs>
<filter id="filter0_d_0:1" x="-1110" y="-1517" width="1230" height="2133" filterUnits="userSpaceOnUse" color-interpolation-filters="sRGB">
<feFlood flood-opacity="0" result="BackgroundImageFix"/>
<feColorMatrix in="SourceAlpha" type="matrix" values="0 0 0 0 0 0 0 0 0 0 0 0 0 0 0 0 0 0 127 0" result="hardAlpha"/>
<feOffset/>
<feGaussianBlur stdDeviation="7.5"/>
<feColorMatrix type="matrix" values="0 0 0 0 0 0 0 0 0 0 0 0 0 0 0 0 0 0 0.2 0"/>
<feBlend mode="normal" in2="BackgroundImageFix" result="effect1_dropShadow_0:1"/>
<feBlend mode="normal" in="SourceGraphic" in2="effect1_dropShadow_0:1" result="shape"/>
</filter>
<clipPath id="clip0_0:1">
<rect width="1280" height="2103" fill="white" transform="translate(-1135 -1502)"/>
</clipPath>
<clipPath id="clip1_0:1">
<rect width="12" height="7" fill="white"/>
</clipPath>
</defs>
</svg>
